<?xml version="1.0" encoding="UTF-8"?>
<svg id="Lager_1" data-name="Lager 1" xmlns="http://www.w3.org/2000/svg" xmlns:xlink="http://www.w3.org/1999/xlink" viewBox="0 0 947.46 242.76">
  <defs>
    <style>
      .cls-1 {
        fill: url(#Namnlös_övertoning_2);
        fill-opacity: .8;
      }

      .cls-1, .cls-2, .cls-3, .cls-4, .cls-5, .cls-6, .cls-7, .cls-8, .cls-9, .cls-10, .cls-11, .cls-12, .cls-13, .cls-14, .cls-15, .cls-16, .cls-17, .cls-18, .cls-19, .cls-20, .cls-21, .cls-22, .cls-23, .cls-24, .cls-25, .cls-26, .cls-27, .cls-28, .cls-29, .cls-30, .cls-31 {
        stroke-width: 0px;
      }

      .cls-2 {
        fill: #31a8ff;
      }

      .cls-3 {
        fill: #000;
      }

      .cls-4 {
        fill: #001e36;
      }

      .cls-5 {
        fill: #2965f1;
      }

      .cls-6 {
        fill: #00d8ff;
      }

      .cls-7 {
        fill: #e44d26;
      }

      .cls-8 {
        fill: #a259ff;
      }

      .cls-9 {
        fill: #1abcfe;
      }

      .cls-10 {
        fill: #f24e1e;
      }

      .cls-11 {
        fill: #300;
      }

      .cls-12 {
        fill: #0acf83;
      }

      .cls-13 {
        fill: #ff7262;
      }

      .cls-14 {
        fill: #00005b;
      }

      .cls-15 {
        fill: #ebebeb;
      }

      .cls-16 {
        fill: #ff9a00;
      }

      .cls-17 {
        fill: #36687f;
      }

      .cls-18 {
        fill: #99f;
      }

      .cls-19 {
        fill: #464342;
      }

      .cls-20 {
        fill: #00569e;
      }

      .cls-21 {
        fill: #265787;
      }

      .cls-22 {
        fill: #00b5f8;
      }

      .cls-23 {
        fill: #264de4;
      }

      .cls-24 {
        fill: #f16529;
      }

      .cls-25 {
        fill: #47c5fb;
      }

      .cls-26 {
        fill: #39a5cc;
      }

      .cls-27 {
        fill: #7fc5de;
      }

      .cls-28 {
        fill: #fff;
      }

      .cls-29 {
        fill: #f7df1e;
      }

      .cls-30 {
        fill: #ea7600;
      }

      .cls-31 {
        fill: #007fff;
      }
    </style>
    <linearGradient id="Namnlös_övertoning_2" data-name="Namnlös övertoning 2" x1="59.88" y1="345.26" x2="60.12" y2="345.17" gradientTransform="translate(-2198.44 15613) scale(44.59 -44.59)" gradientUnits="userSpaceOnUse">
      <stop offset="0" stop-color="#000"/>
      <stop offset="1" stop-color="#000" stop-opacity="0"/>
    </linearGradient>
  </defs>
  <g>
    <path class="cls-28" d="M755.5,62.54c.42-7.46,4.07-14.03,9.58-18.69,5.4-4.58,12.68-7.37,20.61-7.37s15.2,2.8,20.61,7.37c5.51,4.66,9.16,11.23,9.58,18.68.42,7.66-2.66,14.78-8.07,20.06-5.51,5.37-13.35,8.74-22.13,8.74s-16.63-3.37-22.14-8.74c-5.41-5.28-8.48-12.4-8.06-20.05Z"/>
    <path class="cls-21" d="M770.21,63.2c.21-3.83,2.09-7.2,4.92-9.59,2.77-2.35,6.51-3.78,10.58-3.78s7.8,1.44,10.58,3.78c2.83,2.39,4.7,5.76,4.92,9.59.21,3.93-1.37,7.59-4.14,10.29-2.83,2.75-6.85,4.48-11.35,4.48s-8.53-1.73-11.36-4.48c-2.77-2.71-4.35-6.36-4.14-10.29Z"/>
    <path class="cls-30" d="M745.61,71.07c.03,1.5.51,4.42,1.22,6.7,1.51,4.82,4.07,9.28,7.63,13.21,3.66,4.04,8.16,7.29,13.35,9.59,5.46,2.42,11.39,3.65,17.54,3.64,6.14,0,12.06-1.27,17.53-3.7,5.2-2.33,9.7-5.59,13.34-9.63,3.56-3.95,6.12-8.42,7.63-13.24.76-2.44,1.24-4.91,1.43-7.39.19-2.44.11-4.89-.24-7.34-.68-4.77-2.33-9.24-4.87-13.32-2.32-3.75-5.32-7.03-8.88-9.79h0s-35.92-27.59-35.92-27.59c-.03-.02-.06-.05-.09-.07-2.36-1.81-6.32-1.8-8.91.01-2.62,1.83-2.92,4.87-.59,6.78h-.01s14.98,12.19,14.98,12.19l-45.67.05h-.06c-3.77,0-7.4,2.48-8.12,5.61-.74,3.19,1.83,5.83,5.75,5.85h0s23.15-.03,23.15-.03l-41.31,31.71c-.05.04-.11.08-.16.12-3.9,2.98-5.16,7.95-2.7,11.09,2.49,3.19,7.79,3.2,11.72.02l22.54-18.45s-.33,2.49-.3,3.99ZM803.54,79.41c-4.64,4.73-11.15,7.42-18.18,7.43-7.05.01-13.55-2.65-18.19-7.37-2.27-2.3-3.94-4.95-4.97-7.77-1.01-2.77-1.4-5.72-1.14-8.69.25-2.9,1.11-5.67,2.49-8.18,1.35-2.46,3.22-4.69,5.53-6.57,4.52-3.68,10.26-5.67,16.28-5.68,6.02,0,11.76,1.97,16.28,5.63,2.3,1.87,4.16,4.09,5.52,6.55,1.39,2.5,2.24,5.26,2.5,8.17.26,2.97-.14,5.9-1.14,8.68-1.03,2.83-2.69,5.48-4.96,7.79Z"/>
  </g>
  <g>
    <polygon class="cls-25" points="483.48 137.15 431.49 188.25 447.58 204.07 515.66 137.15 483.48 137.15"/>
    <polygon class="cls-25" points="483.12 184.28 455.28 211.64 471.43 227.75 487.49 211.96 515.66 184.28 483.12 184.28"/>
    <polygon class="cls-20" points="471.43 227.75 483.66 239.77 515.66 239.77 487.49 211.96 471.43 227.75"/>
    <polygon class="cls-22" points="455.1 211.82 471.19 196 487.49 211.96 471.43 227.75 455.1 211.82"/>
    <polygon class="cls-1" points="471.43 227.75 484.81 223.39 486.13 213.3 471.43 227.75"/>
  </g>
  <path class="cls-6" d="M647.56,171.82c-1.12-.38-2.27-.74-3.46-1.08.2-.79.38-1.57.53-2.34,2.62-12.58.91-22.72-4.94-26.05-5.61-3.2-14.79.14-24.06,8.11-.89.77-1.78,1.58-2.68,2.43-.6-.56-1.19-1.11-1.78-1.63-9.71-8.53-19.45-12.12-25.29-8.78-5.61,3.21-7.27,12.74-4.91,24.66.23,1.15.49,2.33.8,3.52-1.38.39-2.71.8-3.98,1.24-11.39,3.93-18.66,10.08-18.66,16.46s7.81,13.2,19.67,17.21c.94.32,1.91.62,2.91.9-.32,1.29-.61,2.56-.84,3.8-2.25,11.72-.49,21.02,5.1,24.21,5.77,3.29,15.47-.09,24.9-8.25.75-.64,1.49-1.33,2.24-2.05.97.93,1.94,1.8,2.91,2.62,9.14,7.78,18.17,10.92,23.75,7.72,5.77-3.3,7.64-13.3,5.21-25.46-.19-.93-.4-1.88-.65-2.84.68-.2,1.35-.4,2-.62,12.33-4.04,20.35-10.57,20.35-17.25s-7.51-12.6-19.12-16.56h0ZM644.89,201.31c-.59.19-1.19.38-1.81.56-1.36-4.26-3.2-8.79-5.45-13.48,2.15-4.57,3.91-9.04,5.23-13.28,1.1.31,2.17.65,3.2,1,9.95,3.39,16.02,8.4,16.02,12.26,0,4.11-6.56,9.45-17.2,12.94h0ZM640.47,209.97c1.08,5.38,1.23,10.24.52,14.04-.64,3.41-1.93,5.69-3.52,6.6-3.39,1.94-10.64-.58-18.46-7.23-.9-.76-1.8-1.58-2.7-2.44,3.03-3.28,6.06-7.09,9.02-11.32,5.2-.46,10.11-1.2,14.57-2.22.22.88.41,1.73.58,2.57h0ZM595.8,230.27c-3.31,1.16-5.95,1.19-7.54.28-3.39-1.94-4.8-9.41-2.88-19.43.22-1.15.48-2.33.78-3.53,4.41.96,9.28,1.66,14.49,2.07,2.98,4.14,6.09,7.95,9.23,11.28-.69.66-1.37,1.28-2.05,1.87-4.17,3.61-8.35,6.17-12.04,7.45h0ZM580.28,201.28c-5.24-1.77-9.58-4.08-12.54-6.59-2.67-2.26-4.01-4.5-4.01-6.32,0-3.87,5.84-8.81,15.58-12.17,1.18-.41,2.42-.79,3.7-1.15,1.35,4.33,3.11,8.86,5.24,13.43-2.16,4.65-3.95,9.24-5.31,13.62-.92-.26-1.8-.53-2.65-.82h0ZM585.48,166.27c-2.02-10.22-.68-17.92,2.7-19.86,3.6-2.06,11.56.88,19.94,8.24.54.47,1.07.96,1.61,1.47-3.13,3.32-6.21,7.1-9.16,11.21-5.06.46-9.9,1.21-14.35,2.21-.28-1.11-.53-2.21-.74-3.28h0ZM631.88,177.6c-1.06-1.82-2.16-3.59-3.27-5.32,3.43.43,6.72,1,9.81,1.7-.93,2.94-2.08,6.01-3.44,9.16-.98-1.83-2.01-3.68-3.09-5.54h0ZM612.96,159.38c2.12,2.27,4.24,4.81,6.33,7.56-2.1-.1-4.23-.15-6.38-.15s-4.24.05-6.33.15c2.09-2.73,4.23-5.26,6.38-7.55h0ZM593.92,177.64c-1.06,1.82-2.08,3.66-3.04,5.5-1.34-3.14-2.48-6.22-3.42-9.2,3.07-.68,6.34-1.23,9.75-1.66-1.13,1.74-2.23,3.53-3.3,5.36h0ZM597.31,204.79c-3.52-.39-6.84-.92-9.91-1.58.95-3.03,2.12-6.18,3.49-9.39.96,1.84,1.98,3.68,3.05,5.5h0c1.09,1.86,2.22,3.68,3.38,5.46h0ZM613.09,217.68c-2.18-2.32-4.35-4.89-6.47-7.66,2.06.08,4.16.12,6.29.12s4.36-.05,6.49-.14c-2.09,2.81-4.21,5.39-6.31,7.68h0ZM635.02,193.66c1.44,3.24,2.65,6.38,3.61,9.36-3.12.7-6.49,1.27-10.03,1.69,1.12-1.75,2.22-3.56,3.3-5.41,1.1-1.88,2.14-3.76,3.12-5.64h0ZM627.92,197.03c-1.68,2.88-3.41,5.64-5.16,8.23-3.19.23-6.49.34-9.85.34s-6.6-.1-9.74-.3c-1.82-2.63-3.59-5.39-5.26-8.25h0c-1.67-2.85-3.2-5.72-4.59-8.57,1.39-2.86,2.92-5.73,4.58-8.57h0c1.66-2.85,3.41-5.59,5.22-8.21,3.2-.24,6.48-.36,9.79-.36h0c3.33,0,6.61.13,9.81.37,1.78,2.6,3.51,5.33,5.18,8.18,1.69,2.88,3.24,5.74,4.64,8.53-1.4,2.85-2.94,5.73-4.62,8.61h0ZM637.4,146.28c3.6,2.05,5,10.34,2.74,21.2-.14.69-.31,1.4-.48,2.11-4.46-1.02-9.31-1.78-14.38-2.25-2.96-4.16-6.02-7.95-9.09-11.22.83-.79,1.65-1.54,2.47-2.24,7.94-6.83,15.36-9.53,18.74-7.6h0ZM612.91,178.87c5.3,0,9.6,4.25,9.6,9.5s-4.3,9.5-9.6,9.5-9.6-4.25-9.6-9.5,4.3-9.5,9.6-9.5h0Z"/>
  <path class="cls-3" d="M698.5,135.67c-.22-.91.62-1.72,1.51-1.46h0l26.15,7.53c.23,0,.47.07.66.19l51.56,14.85c.21,0,.42.06.61.17l26.15,7.53c.9.26,1.18,1.39.51,2.04h0l-78.9,75.9c-.67.65-1.8.32-2.02-.58h0l-13.09-52.99c-.02-.05-.03-.11-.04-.17l-13.1-53.01ZM720.89,216.22l5.68,23,17.11-16.46-22.79-6.54ZM738.51,198.03l-16.56,15.96,22.06,6.33-5.5-22.3ZM740.97,197.86l5.48,22.23,16.52-15.89-22-6.34ZM714.47,190.22l5.51,22.3,16.54-15.94-22.05-6.35ZM758.05,179.18l-16.83,16.22,22.42,6.46-5.6-22.68ZM760.4,178.61l5.6,22.68,16.87-16.23-22.47-6.45ZM732.01,171.66l-16.86,16.23,22.47,6.47-5.6-22.71ZM734.36,171.04l5.5,22.3,16.56-15.96-22.06-6.33ZM707.87,163.47l5.6,22.67,16.85-16.22-22.45-6.44ZM777.69,160.32l-16.56,15.96,22.06,6.33-5.5-22.3ZM780.06,159.78l5.58,22.61,16.81-16.17-22.39-6.45ZM751.55,152.85l-16.49,15.87,21.96,6.3-5.47-22.18ZM753.9,152.25l5.51,22.32,16.57-15.97-22.08-6.36ZM725.49,145.29l-16.56,15.96,22.06,6.33-5.5-22.3ZM727.86,144.75l5.49,22.24,16.52-15.9-22.01-6.34ZM701.36,137.12l5.6,22.66,16.82-16.21-22.41-6.45Z"/>
  <g>
    <path class="cls-17" d="M582.06,18.37h96.9v95.3h-94.06c-1.57,0-2.84-1.27-2.84-2.84V18.37h0Z"/>
    <path class="cls-26" d="M589.89,1.33h77.78c1.78,0,3.23,1.45,3.23,3.23v75.77h-81.01V1.33h0Z"/>
    <polygon class="cls-27" points="572.66 11.62 589.89 1.33 589.89 80.32 572.66 91.06 572.66 11.62"/>
    <polygon class="cls-28" points="607.65 62.78 617.14 62.78 617.14 34 624.94 62.78 635.35 62.78 642.81 34 642.81 62.78 653.14 62.78 653.14 19.23 639.96 19.23 630.51 53.64 621.5 19.23 607.65 19.23 607.65 62.78"/>
    <polygon class="cls-28" points="636.41 105.16 641.03 88.46 646.57 88.46 651.52 105.16 647.24 105.16 646.31 101.47 641.36 101.39 640.52 105.16 636.41 105.16"/>
    <polygon class="cls-17" points="643.8 91.36 642.1 98.39 645.5 98.39 643.8 91.36"/>
    <polygon class="cls-28" points="609.1 105.16 613.71 88.46 619.25 88.46 624.2 105.16 619.92 105.16 619 101.47 614.05 101.39 613.21 105.16 609.1 105.16"/>
    <polygon class="cls-17" points="616.48 91.36 614.78 98.39 618.18 98.39 616.48 91.36"/>
    <polygon class="cls-28" points="623.05 88.46 627.33 88.46 630.4 95.39 633.42 88.46 637.61 88.46 632.53 98.39 632.53 105.16 628.21 105.16 628.21 98.39 623.05 88.46"/>
  </g>
  <g>
    <path class="cls-7" d="M381.01,135.42l-8.52,95.45-38.3,10.62-38.2-10.6-8.51-95.47h93.53Z"/>
    <path class="cls-24" d="M334.24,233.38l30.95-8.58,7.28-81.57h-38.23v90.15h0Z"/>
    <path class="cls-15" d="M317.68,166.65h16.56v-11.71h-29.36l.28,3.14,2.88,32.27h26.2v-11.71h-15.49l-1.07-11.99h0Z"/>
    <path class="cls-15" d="M320.32,196.2h-11.75l1.64,18.38,23.98,6.66h.05v-12.2h-.05s-13.04-3.51-13.04-3.51l-.83-9.34h0Z"/>
    <path class="cls-28" d="M334.2,190.35h14.42l-1.36,15.19-13.06,3.52v12.18l24-6.65.18-1.98,2.75-30.83.29-3.14h-27.22v11.71h0Z"/>
    <path class="cls-28" d="M334.2,166.62v.03h28.28l.23-2.63.53-5.94.28-3.14h-29.33v11.68h0Z"/>
  </g>
  <g>
    <path class="cls-23" d="M194.85,241.5l-38.2-10.6-8.51-95.47h93.53l-8.52,95.45-38.3,10.62h0Z"/>
    <path class="cls-5" d="M225.86,224.8l7.28-81.57h-38.23v90.15l30.95-8.58h0Z"/>
    <path class="cls-15" d="M167.66,178.64l1.05,11.71h26.2v-11.71h-27.25Z"/>
    <path class="cls-15" d="M165.55,154.94l1.06,11.71h28.3v-11.71h-29.36Z"/>
    <path class="cls-15" d="M194.91,209.05h-.05s-13.04-3.51-13.04-3.51l-.83-9.34h-11.75l1.64,18.38,23.98,6.66h.05v-12.2h0Z"/>
    <path class="cls-28" d="M222.09,178.64l2.11-23.7h-29.33v11.71h16.5l-1.07,11.99h-15.43v11.71h14.42l-1.36,15.19-13.06,3.52v12.18l24-6.65.18-1.98,2.75-30.83.29-3.14h0Z"/>
  </g>
  <g>
    <path class="cls-14" d="M445.32.6h76.82c10.54,0,19.09,8.68,19.09,19.38v75.05c0,10.7-8.55,19.38-19.09,19.38h-76.82c-10.54,0-19.09-8.68-19.09-19.38V19.98c0-10.7,8.55-19.38,19.09-19.38Z"/>
    <path class="cls-18" d="M472.43,68.68h-17.82l-3.63,11.45c-.1.41-.45.69-.85.71h-9.1c-.51,0-.69-.29-.54-.86l15.43-44.91.15-.47c.02-.05.03-.11.05-.16l.1-.34c.05-.17.1-.36.15-.56.2-1.04.31-2.11.31-3.17-.02-.15.03-.3.14-.41.11-.11.26-.16.4-.14h12.27c.36,0,.56.13.62.39l17.51,49.85c.15.52,0,.78-.46.78h-10.03c-.36.04-.69-.19-.77-.55l-3.93-11.61ZM457.39,59.03h12.19l-.17-.58h0l-.28-.92h0l-.41-1.32h0l-.78-2.49h0l-.75-2.4h0l-1.39-4.46h0c-.4-1.28-.77-2.51-1.11-3.71l-.39-1.41h0l-.43-1.55h0l-.39-1.44h-.08c-.39,1.88-.86,3.74-1.41,5.58l-.52,1.7h0l-1.25,4.1h0l-.64,2.09c-.11.38-.23.75-.34,1.12l-.34,1.09h0l-.34,1.07h0l-.34,1.04h0l-.34,1.02c-.17.5-.33.99-.5,1.47ZM516.02,64.23h-15.2c.19,1.53.69,3,1.47,4.31.86,1.31,2.08,2.33,3.51,2.94,1.93.85,4.03,1.27,6.13,1.22,1.67-.03,3.34-.22,4.98-.55,1.47-.2,2.9-.58,4.28-1.13.26-.21.39-.08.39.39v7.44c.01.2-.03.41-.12.59-.09.14-.21.26-.35.35-1.53.69-3.13,1.17-4.78,1.45-2.24.43-4.51.62-6.79.59-3.54,0-6.52-.54-8.95-1.62l-.23-.11c-2.33-1.04-4.39-2.63-6.02-4.62-1.52-1.88-2.65-4.05-3.32-6.38-.67-2.3-1-4.69-1-7.09,0-2.62.4-5.22,1.2-7.71.77-2.43,1.99-4.69,3.59-6.66,1.58-1.94,3.55-3.52,5.79-4.62,2.26-1.12,4.94-1.52,8.02-1.52,2.56-.07,5.1.44,7.44,1.49,1.97.85,3.71,2.18,5.05,3.87,1.26,1.66,2.23,3.52,2.85,5.52.61,1.92.92,3.93.93,5.95,0,1.15-.04,2.19-.12,3.13l-.07.8h0l-.07.76h0l-.04.39s0,.06,0,.08c-.04.36-.34.63-.69.63h-.21s-.26.02-.26.02h-.21s-.48.06-.48.06h0l-.42.04c-.11.01-.23.02-.36.03l-.38.03h0l-.41.03h0l-.43.02h0l-.46.02c-.08,0-.16,0-.24,0h-.5c-.49.03-1,0-1.51-.04l-.78-.06c-.4-.03-.8-.05-1.21-.05ZM500.82,57.09h10.51s.89,0,.89,0h.61s.39-.02.39-.02h0l.44-.02h0c.4-.04.78-.17,1.12-.38v-.47c-.02-.61-.12-1.22-.31-1.8-.86-2.75-3.41-4.57-6.25-4.46-2.65-.16-5.15,1.28-6.36,3.68-.53,1.09-.88,2.26-1.04,3.47Z"/>
  </g>
  <g>
    <rect class="cls-4" x="142.08" y="1.44" width="115" height="112.13" rx="19.09" ry="19.09"/>
    <path class="cls-2" d="M167.97,80.06V30.77c0-.36.15-.54.46-.54h.49s.83-.01.83-.01h0l1.16-.02h0l3.89-.08h0l4.17-.08h0c1.47-.03,2.92-.04,4.36-.04,3.91,0,7.2.49,9.87,1.47,2.41.82,4.61,2.16,6.44,3.93,1.55,1.54,2.75,3.39,3.51,5.44.72,1.99,1.09,4.09,1.08,6.21,0,4.12-.95,7.51-2.85,10.18-1.86,2.61-4.46,4.6-7.46,5.73l-.26.09c-3.13,1.17-6.6,1.59-10.41,1.62h-.59s-.88,0-.88,0h-.44s-.49-.02-.49-.02h-.3s-.18-.02-.18-.02h0l-.44-.02h-.54s-.82-.02-.82-.02c-.06,0-.12,0-.18,0v15.39c.03.19-.04.38-.17.52-.14.14-.33.2-.52.17h-9.18c-.36,0-.54-.2-.54-.62ZM178.39,39.49v16.08c.67.05,1.28.08,1.85.08h2.55c1.76,0,3.5-.27,5.18-.78l.34-.1c1.53-.45,2.89-1.34,3.93-2.55.97-1.14,1.47-2.71,1.5-4.71v-.22c.04-1.49-.35-2.96-1.12-4.24-.81-1.24-1.98-2.19-3.36-2.74-1.79-.7-3.71-1.03-5.63-.96h-.98s-.62,0-.62,0h-.59s-.83.02-.83.02h0l-.61.02h-.32s-.42.03-.42.03h0l-.36.02h0l-.2.02h0l-.18.02s-.05,0-.08,0h-.07ZM234.06,52.64c-1.35-.69-2.77-1.21-4.25-1.55l-.34-.07c-1.62-.37-3.28-.58-4.95-.61h-.42c-.98-.03-1.95.09-2.89.34-.6.13-1.13.48-1.5.96-.25.39-.39.85-.39,1.31.01.45.18.89.46,1.23.41.48.9.88,1.45,1.18l.17.09c1.1.59,2.23,1.12,3.39,1.58,2.59.87,5.06,2.05,7.37,3.51,1.57.99,2.87,2.36,3.78,3.97.77,1.53,1.15,3.23,1.12,4.94.05,2.26-.6,4.48-1.85,6.36-1.34,1.91-3.2,3.4-5.36,4.28-2.26.99-5.04,1.51-8.34,1.54h-.34c-2.04.02-4.08-.16-6.09-.53l-.43-.08c-1.69-.31-3.34-.83-4.9-1.54-.32-.17-.53-.49-.54-.85v-8.41c-.02-.17.06-.33.19-.42.14-.08.3-.06.42.04,1.85,1.09,3.85,1.88,5.94,2.35,1.84.46,3.73.71,5.63.73,1.8,0,3.12-.23,3.97-.69.78-.36,1.28-1.14,1.27-2.01,0-.67-.39-1.31-1.16-1.93-.32-.26-.79-.54-1.39-.84l-.29-.14h0l-.31-.15c-.05-.02-.11-.05-.16-.07l-.34-.15c-.06-.03-.12-.05-.18-.08l-.37-.15c-.06-.03-.13-.05-.19-.08l-.4-.16c-.07-.03-.14-.05-.21-.08l-.43-.16h0l-.45-.17h0c-2.42-.84-4.72-2.01-6.83-3.47-1.51-1.05-2.75-2.44-3.63-4.05-.76-1.52-1.14-3.2-1.12-4.9,0-2.04.56-4.04,1.62-5.79,1.21-1.92,2.95-3.45,5.01-4.4,2.26-1.13,5.09-1.7,8.49-1.7,1.99-.02,3.97.13,5.94.42,1.42.18,2.82.56,4.14,1.12.21.06.38.22.46.42.05.19.08.38.08.58v7.79c.01.18-.08.36-.23.46-.21.1-.45.1-.66,0Z"/>
  </g>
  <g>
    <rect class="cls-11" x="284.15" y="1.44" width="115" height="112.13" rx="19.09" ry="19.09"/>
    <path class="cls-16" d="M339.88,68.72h-17.82l-3.63,11.26c-.1.42-.49.72-.93.69h-9.03c-.51,0-.69-.28-.54-.85l15.43-44.44c.15-.46.31-.99.46-1.58.2-1.03.31-2.08.31-3.12-.02-.15.03-.3.14-.41.11-.11.26-.16.4-.14h12.27c.36,0,.57.13.62.39l17.51,49.37c.15.51,0,.77-.46.77h-10.03c-.36.04-.69-.19-.77-.54l-3.93-11.42ZM324.84,59h12.19l-.17-.57h0l-.28-.91h0l-.2-.64h0l-.32-1h0l-.68-2.11h0l-.59-1.87h0l-1.54-4.88h0c-.4-1.26-.77-2.47-1.11-3.66l-.28-.99h0l-.33-1.17h0l-.5-1.82c-.03-.12-.06-.23-.09-.34h-.08c-.39,1.85-.86,3.69-1.41,5.49l-1.14,3.68h0l-.63,2.03h0l-.64,2.06c-.11.37-.23.74-.34,1.1l-.34,1.08h0l-.34,1.05h0l-.34,1.03h0l-.34,1c-.11.33-.22.65-.33.97l-.17.48ZM365.49,38.33c-1.59.06-3.13-.55-4.24-1.7-1.1-1.19-1.69-2.77-1.62-4.4-.06-1.61.57-3.17,1.74-4.28,1.11-1.06,2.58-1.66,4.12-1.66h.16c1.85,0,3.3.55,4.36,1.66,1.07,1.16,1.64,2.7,1.58,4.28.07,1.63-.53,3.22-1.66,4.4-1.14,1.12-2.68,1.73-4.27,1.7h-.16ZM360.17,79.91v-36.88c0-.46.2-.69.62-.69h9.49c.41,0,.62.23.62.69v36.88c0,.51-.21.77-.62.77h-9.41c-.44,0-.67-.23-.69-.69v-.08Z"/>
  </g>
  <path class="cls-31" d="M928.45,205.46c.92-.53,1.5-1.51,1.5-2.58l.05-17.29c0-1.07.58-2.05,1.5-2.58l9.37-5.38c.92-.53,2.06-.53,2.98,0,.92.53,1.49,1.52,1.49,2.59v31.43c0,1.07-.57,2.06-1.5,2.59l-35.37,20.32c-.92.53-2.05.53-2.97,0l-27.76-15.88c-.93-.53-1.51-1.52-1.51-2.59v-15.85s.02-.03.04-.02c.01,0,.04,0,.04-.02v-.02s0-.02.02-.03l22.86-13.13s.01-.04-.01-.04c-.01,0-.02-.01-.02-.02l.04-15.54c0-1.07-.56-2.06-1.49-2.6-.93-.54-2.07-.54-2.99,0l-16.99,9.79c-.92.53-2.06.53-2.98,0l-17.05-9.81c-.92-.53-2.06-.53-2.99,0-.92.53-1.49,1.52-1.49,2.59v28.09c0,1.07-.57,2.05-1.49,2.59-.92.54-2.06.54-2.98.01l-9.46-5.41c-.93-.53-1.51-1.53-1.51-2.6l.08-49.09c0-1.07.57-2.05,1.49-2.58.92-.53,2.06-.53,2.98,0l32.4,18.61c.92.53,2.05.53,2.98,0l32.39-18.61c.92-.53,2.06-.53,2.99,0s1.49,1.52,1.49,2.59v49.1c0,1.07-.57,2.06-1.5,2.59l-16.96,9.77c-.93.53-1.5,1.52-1.5,2.6s.58,2.06,1.51,2.59l9.36,5.33c.92.52,2.05.52,2.97,0l19.97-11.47ZM930.41,161.41c0,1.08.58,2.07,1.52,2.6.94.53,2.08.52,3.01-.04l8.96-5.38c.9-.54,1.45-1.51,1.45-2.56v-10.96c0-1.08-.58-2.07-1.52-2.6-.94-.53-2.08-.51-3.01.04l-8.96,5.38c-.9.54-1.45,1.51-1.45,2.56v10.96h0Z"/>
  <g>
    <path class="cls-29" d="M1.8,134.68h107.56v107.56H1.8v-107.56Z"/>
    <path class="cls-3" d="M30.08,224.56l8.23-4.98c1.59,2.82,3.03,5.2,6.5,5.2s5.42-1.3,5.42-6.35v-34.37h10.11v34.51c0,10.47-6.14,15.23-15.09,15.23-8.09,0-12.78-4.19-15.16-9.24"/>
    <path class="cls-3" d="M65.82,223.48l8.23-4.77c2.17,3.54,4.98,6.14,9.96,6.14,4.19,0,6.86-2.09,6.86-4.98,0-3.47-2.74-4.69-7.36-6.71l-2.53-1.08c-7.29-3.1-12.13-7-12.13-15.23,0-7.58,5.78-13.36,14.8-13.36,6.43,0,11.05,2.24,14.37,8.09l-7.87,5.05c-1.73-3.1-3.61-4.33-6.5-4.33s-4.84,1.88-4.84,4.33c0,3.03,1.88,4.26,6.21,6.14l2.53,1.08c8.59,3.68,13.43,7.44,13.43,15.88,0,9.1-7.15,14.08-16.75,14.08s-15.45-4.48-18.41-10.32"/>
  </g>
  <g>
    <path class="cls-12" d="M891.21,113.75c10.35,0,18.75-8.4,18.75-18.75v-18.75h-18.75c-10.35,0-18.75,8.4-18.75,18.75s8.4,18.75,18.75,18.75Z"/>
    <path class="cls-8" d="M872.46,57.5c0-10.35,8.4-18.75,18.75-18.75h18.75v37.5h-18.75c-10.35,0-18.75-8.4-18.75-18.75Z"/>
    <path class="cls-10" d="M872.46,20c0-10.35,8.4-18.75,18.75-18.75h18.75v37.5h-18.75c-10.35,0-18.75-8.4-18.75-18.75Z"/>
    <path class="cls-13" d="M909.96,1.25h18.75c10.35,0,18.75,8.4,18.75,18.75s-8.4,18.75-18.75,18.75h-18.75V1.25Z"/>
    <path class="cls-9" d="M947.46,57.5c0,10.35-8.4,18.75-18.75,18.75s-18.75-8.4-18.75-18.75,8.4-18.75,18.75-18.75,18.75,8.4,18.75,18.75Z"/>
  </g>
  <path class="cls-19" d="M8.17,57.5c0,19.52,11.35,36.4,27.8,44.39L12.44,37.42c-2.74,6.13-4.27,12.92-4.27,20.07h0ZM90.8,55.01c0-6.1-2.19-10.32-4.07-13.6-2.5-4.06-4.84-7.5-4.84-11.57,0-4.53,3.44-8.75,8.28-8.75.22,0,.43.03.64.04-8.78-8.04-20.47-12.95-33.31-12.95-17.23,0-32.39,8.84-41.21,22.23,1.16.03,2.25.06,3.17.06,5.16,0,13.15-.63,13.15-.63,2.66-.16,2.97,3.75.32,4.06,0,0-2.67.31-5.65.47l17.96,53.43,10.79-32.37-7.68-21.06c-2.66-.16-5.17-.47-5.17-.47-2.66-.16-2.35-4.22.31-4.06,0,0,8.15.63,12.99.63,5.16,0,13.15-.63,13.15-.63,2.66-.16,2.97,3.75.32,4.06,0,0-2.68.31-5.65.47l17.83,53.02,4.92-16.44c2.13-6.82,3.76-11.72,3.76-15.95h0ZM58.36,61.81l-14.8,43c4.42,1.3,9.09,2.01,13.93,2.01,5.74,0,11.25-.99,16.38-2.8-.13-.21-.25-.44-.35-.68l-15.16-41.54h0ZM100.78,33.83c.21,1.57.33,3.26.33,5.07,0,5.01-.93,10.63-3.75,17.67l-15.07,43.56c14.66-8.55,24.53-24.44,24.53-42.64,0-8.58-2.19-16.64-6.04-23.67h0ZM57.5,0C25.79,0,0,25.79,0,57.5s25.79,57.5,57.5,57.5,57.5-25.79,57.5-57.5c0-31.7-25.8-57.5-57.5-57.5h0ZM57.5,112.36c-30.25,0-54.86-24.61-54.86-54.86S27.25,2.64,57.5,2.64s54.86,24.61,54.86,54.86-24.61,54.86-54.86,54.86h0Z"/>
</svg>